<mxfile host="app.diagrams.net" agent="Mozilla/5.0 (Windows NT 10.0; Win64; x64) AppleWebKit/537.36 (KHTML, like Gecko) Chrome/126.0.0.0 Safari/537.36" version="24.7.4">
  <diagram name="Page-1" id="7t2LEYN8sNlfCKM_Irf8">
    <mxGraphModel dx="1430" dy="757" grid="1" gridSize="10" guides="1" tooltips="1" connect="1" arrows="1" fold="1" page="1" pageScale="1" pageWidth="850" pageHeight="1100" math="0" shadow="0">
      <root>
        <mxCell id="0" />
        <mxCell id="1" parent="0" />
        <mxCell id="35xceseinkIuoweITH5B-10" style="edgeStyle=orthogonalEdgeStyle;rounded=0;orthogonalLoop=1;jettySize=auto;html=1;entryX=0;entryY=0.5;entryDx=0;entryDy=0;" parent="1" source="35xceseinkIuoweITH5B-1" target="35xceseinkIuoweITH5B-4" edge="1">
          <mxGeometry relative="1" as="geometry" />
        </mxCell>
        <mxCell id="c8YGAaLrMJaknSb1OKQ_-1" style="edgeStyle=orthogonalEdgeStyle;rounded=0;orthogonalLoop=1;jettySize=auto;html=1;entryX=0.5;entryY=0;entryDx=0;entryDy=0;" edge="1" parent="1" source="35xceseinkIuoweITH5B-1" target="35xceseinkIuoweITH5B-12">
          <mxGeometry relative="1" as="geometry">
            <Array as="points">
              <mxPoint x="360" y="370" />
              <mxPoint x="270" y="370" />
            </Array>
          </mxGeometry>
        </mxCell>
        <mxCell id="35xceseinkIuoweITH5B-1" value="Application binaries:&lt;div&gt;.war, .tar, exe, etc,&lt;/div&gt;" style="rounded=1;whiteSpace=wrap;html=1;" parent="1" vertex="1">
          <mxGeometry x="300" y="200" width="120" height="80" as="geometry" />
        </mxCell>
        <mxCell id="cpO8tw7uXI1eepPEYQoP-2" style="edgeStyle=orthogonalEdgeStyle;rounded=0;orthogonalLoop=1;jettySize=auto;html=1;" parent="1" source="35xceseinkIuoweITH5B-2" target="35xceseinkIuoweITH5B-12" edge="1">
          <mxGeometry relative="1" as="geometry">
            <Array as="points">
              <mxPoint x="180" y="370" />
              <mxPoint x="270" y="370" />
            </Array>
          </mxGeometry>
        </mxCell>
        <mxCell id="35xceseinkIuoweITH5B-2" value="Build from Source Code" style="rounded=1;whiteSpace=wrap;html=1;fillColor=#f5f5f5;fontColor=#333333;strokeColor=#666666;" parent="1" vertex="1">
          <mxGeometry x="120" y="210" width="120" height="60" as="geometry" />
        </mxCell>
        <mxCell id="35xceseinkIuoweITH5B-3" value="Build Stage" style="text;html=1;align=center;verticalAlign=middle;whiteSpace=wrap;rounded=0;" parent="1" vertex="1">
          <mxGeometry x="150" y="160" width="60" height="30" as="geometry" />
        </mxCell>
        <mxCell id="35xceseinkIuoweITH5B-17" style="edgeStyle=orthogonalEdgeStyle;rounded=0;orthogonalLoop=1;jettySize=auto;html=1;entryX=0.5;entryY=0;entryDx=0;entryDy=0;" parent="1" source="35xceseinkIuoweITH5B-4" target="cpO8tw7uXI1eepPEYQoP-4" edge="1">
          <mxGeometry relative="1" as="geometry">
            <mxPoint x="540" y="310" as="targetPoint" />
            <Array as="points">
              <mxPoint x="540" y="370" />
              <mxPoint x="630" y="370" />
            </Array>
          </mxGeometry>
        </mxCell>
        <mxCell id="c8YGAaLrMJaknSb1OKQ_-4" style="edgeStyle=orthogonalEdgeStyle;rounded=0;orthogonalLoop=1;jettySize=auto;html=1;" edge="1" parent="1" source="35xceseinkIuoweITH5B-4" target="c8YGAaLrMJaknSb1OKQ_-3">
          <mxGeometry relative="1" as="geometry" />
        </mxCell>
        <mxCell id="35xceseinkIuoweITH5B-4" value="Deploy application" style="rounded=1;whiteSpace=wrap;html=1;fillColor=#f5f5f5;fontColor=#333333;strokeColor=#666666;" parent="1" vertex="1">
          <mxGeometry x="480" y="210" width="120" height="60" as="geometry" />
        </mxCell>
        <mxCell id="35xceseinkIuoweITH5B-22" style="edgeStyle=orthogonalEdgeStyle;rounded=0;orthogonalLoop=1;jettySize=auto;html=1;entryX=0.5;entryY=0;entryDx=0;entryDy=0;" parent="1" source="35xceseinkIuoweITH5B-5" target="35xceseinkIuoweITH5B-21" edge="1">
          <mxGeometry relative="1" as="geometry">
            <Array as="points">
              <mxPoint x="900" y="370" />
              <mxPoint x="990" y="370" />
            </Array>
          </mxGeometry>
        </mxCell>
        <mxCell id="c8YGAaLrMJaknSb1OKQ_-6" style="edgeStyle=orthogonalEdgeStyle;rounded=0;orthogonalLoop=1;jettySize=auto;html=1;entryX=0;entryY=0.5;entryDx=0;entryDy=0;" edge="1" parent="1" source="35xceseinkIuoweITH5B-5" target="c8YGAaLrMJaknSb1OKQ_-7">
          <mxGeometry relative="1" as="geometry">
            <mxPoint x="1020" y="239.9999999999999" as="targetPoint" />
          </mxGeometry>
        </mxCell>
        <mxCell id="35xceseinkIuoweITH5B-5" value="Run Tests" style="rounded=1;whiteSpace=wrap;html=1;fillColor=#f5f5f5;strokeColor=#666666;fontColor=#333333;" parent="1" vertex="1">
          <mxGeometry x="840" y="210" width="120" height="60" as="geometry" />
        </mxCell>
        <mxCell id="35xceseinkIuoweITH5B-7" value="Deploy Stage" style="text;html=1;align=center;verticalAlign=middle;whiteSpace=wrap;rounded=0;" parent="1" vertex="1">
          <mxGeometry x="510" y="160" width="60" height="30" as="geometry" />
        </mxCell>
        <mxCell id="35xceseinkIuoweITH5B-8" value="Test Stage" style="text;html=1;align=center;verticalAlign=middle;whiteSpace=wrap;rounded=0;" parent="1" vertex="1">
          <mxGeometry x="875" y="160" width="50" height="30" as="geometry" />
        </mxCell>
        <mxCell id="35xceseinkIuoweITH5B-24" style="edgeStyle=orthogonalEdgeStyle;rounded=0;orthogonalLoop=1;jettySize=auto;html=1;entryX=0;entryY=0.5;entryDx=0;entryDy=0;exitX=0.5;exitY=1;exitDx=0;exitDy=0;" parent="1" source="35xceseinkIuoweITH5B-12" target="35xceseinkIuoweITH5B-23" edge="1">
          <mxGeometry relative="1" as="geometry">
            <Array as="points">
              <mxPoint x="270" y="581" />
            </Array>
          </mxGeometry>
        </mxCell>
        <mxCell id="cpO8tw7uXI1eepPEYQoP-1" style="edgeStyle=orthogonalEdgeStyle;rounded=0;orthogonalLoop=1;jettySize=auto;html=1;entryX=0;entryY=0.5;entryDx=0;entryDy=0;exitX=1;exitY=0.5;exitDx=0;exitDy=0;" parent="1" source="35xceseinkIuoweITH5B-2" target="35xceseinkIuoweITH5B-1" edge="1">
          <mxGeometry relative="1" as="geometry">
            <mxPoint x="160" y="240.0000000000001" as="sourcePoint" />
          </mxGeometry>
        </mxCell>
        <mxCell id="35xceseinkIuoweITH5B-12" value="&lt;div&gt;Jtest, dotTest, cov-tool&lt;/div&gt;" style="rounded=1;whiteSpace=wrap;html=1;fillColor=#dae8fc;strokeColor=#6c8ebf;" parent="1" vertex="1">
          <mxGeometry x="210" y="421" width="120" height="60" as="geometry" />
        </mxCell>
        <mxCell id="35xceseinkIuoweITH5B-27" style="edgeStyle=orthogonalEdgeStyle;rounded=0;orthogonalLoop=1;jettySize=auto;html=1;entryX=0;entryY=0.5;entryDx=0;entryDy=0;" parent="1" source="cpO8tw7uXI1eepPEYQoP-4" target="35xceseinkIuoweITH5B-21" edge="1">
          <mxGeometry relative="1" as="geometry" />
        </mxCell>
        <mxCell id="cpO8tw7uXI1eepPEYQoP-7" style="edgeStyle=orthogonalEdgeStyle;rounded=0;orthogonalLoop=1;jettySize=auto;html=1;entryX=1;entryY=0.5;entryDx=0;entryDy=0;exitX=0.5;exitY=1;exitDx=0;exitDy=0;" parent="1" source="35xceseinkIuoweITH5B-21" target="35xceseinkIuoweITH5B-23" edge="1">
          <mxGeometry relative="1" as="geometry">
            <Array as="points">
              <mxPoint x="1000" y="581" />
            </Array>
          </mxGeometry>
        </mxCell>
        <mxCell id="35xceseinkIuoweITH5B-21" value="&lt;div&gt;Parasoft CTP&amp;nbsp;&lt;/div&gt;&lt;div&gt;REST API&lt;/div&gt;" style="rounded=1;whiteSpace=wrap;html=1;fillColor=#dae8fc;strokeColor=#6c8ebf;" parent="1" vertex="1">
          <mxGeometry x="930" y="431" width="120" height="60" as="geometry" />
        </mxCell>
        <mxCell id="c8YGAaLrMJaknSb1OKQ_-15" style="edgeStyle=orthogonalEdgeStyle;rounded=0;orthogonalLoop=1;jettySize=auto;html=1;entryX=0.5;entryY=0;entryDx=0;entryDy=0;" edge="1" parent="1" source="35xceseinkIuoweITH5B-23" target="c8YGAaLrMJaknSb1OKQ_-14">
          <mxGeometry relative="1" as="geometry" />
        </mxCell>
        <mxCell id="35xceseinkIuoweITH5B-23" value="Parasoft DTP" style="rounded=1;whiteSpace=wrap;html=1;fillColor=#dae8fc;strokeColor=#6c8ebf;" parent="1" vertex="1">
          <mxGeometry x="570" y="551" width="120" height="60" as="geometry" />
        </mxCell>
        <mxCell id="35xceseinkIuoweITH5B-32" value="Publish test results and code coverage to DTP" style="text;html=1;align=center;verticalAlign=middle;whiteSpace=wrap;rounded=0;" parent="1" vertex="1">
          <mxGeometry x="780" y="532" width="110" height="30" as="geometry" />
        </mxCell>
        <mxCell id="XXSJzaLtHjIeE2IKimHV-3" value="Publish static coverage files to DTP" style="text;html=1;align=center;verticalAlign=middle;whiteSpace=wrap;rounded=0;" parent="1" vertex="1">
          <mxGeometry x="370" y="531" width="100" height="30" as="geometry" />
        </mxCell>
        <mxCell id="XXSJzaLtHjIeE2IKimHV-11" value="&lt;h1 style=&quot;margin-top: 0px;&quot;&gt;Microservices Code Coverage Workflow - Jtest&lt;/h1&gt;" style="text;html=1;whiteSpace=wrap;overflow=hidden;rounded=0;" parent="1" vertex="1">
          <mxGeometry x="80" y="40" width="530" height="70" as="geometry" />
        </mxCell>
        <mxCell id="cpO8tw7uXI1eepPEYQoP-4" value="http://agent1.url&lt;div&gt;http://agent2.url&lt;/div&gt;&lt;div&gt;http://agent3.url&lt;/div&gt;&lt;div&gt;...&lt;/div&gt;" style="rounded=1;whiteSpace=wrap;html=1;align=center;fillColor=#dae8fc;strokeColor=#6c8ebf;" parent="1" vertex="1">
          <mxGeometry x="570" y="421" width="120" height="80" as="geometry" />
        </mxCell>
        <mxCell id="cpO8tw7uXI1eepPEYQoP-6" value="Step 3&lt;div&gt;&lt;span style=&quot;background-color: initial;&quot;&gt;Update CTP Environment with coverage agent URLs&lt;/span&gt;&lt;/div&gt;" style="text;html=1;align=center;verticalAlign=middle;whiteSpace=wrap;rounded=0;" parent="1" vertex="1">
          <mxGeometry x="750" y="411" width="120" height="30" as="geometry" />
        </mxCell>
        <mxCell id="sYaimhaodGF1XE3qnYoa-1" style="edgeStyle=orthogonalEdgeStyle;rounded=0;orthogonalLoop=1;jettySize=auto;html=1;exitX=0.5;exitY=1;exitDx=0;exitDy=0;" parent="1" edge="1">
          <mxGeometry relative="1" as="geometry">
            <mxPoint x="270" y="230" as="sourcePoint" />
            <mxPoint x="270" y="230" as="targetPoint" />
          </mxGeometry>
        </mxCell>
        <mxCell id="c8YGAaLrMJaknSb1OKQ_-2" value="Step 1&lt;div&gt;Scan sources or binaries to generate static coverage files&lt;/div&gt;" style="text;html=1;align=center;verticalAlign=middle;whiteSpace=wrap;rounded=0;" vertex="1" parent="1">
          <mxGeometry x="195" y="320" width="140" height="30" as="geometry" />
        </mxCell>
        <mxCell id="c8YGAaLrMJaknSb1OKQ_-5" style="edgeStyle=orthogonalEdgeStyle;rounded=0;orthogonalLoop=1;jettySize=auto;html=1;entryX=0;entryY=0.5;entryDx=0;entryDy=0;" edge="1" parent="1" source="c8YGAaLrMJaknSb1OKQ_-3" target="35xceseinkIuoweITH5B-5">
          <mxGeometry relative="1" as="geometry" />
        </mxCell>
        <mxCell id="c8YGAaLrMJaknSb1OKQ_-13" style="edgeStyle=orthogonalEdgeStyle;rounded=0;orthogonalLoop=1;jettySize=auto;html=1;entryX=0.5;entryY=0;entryDx=0;entryDy=0;" edge="1" parent="1" source="c8YGAaLrMJaknSb1OKQ_-3" target="cpO8tw7uXI1eepPEYQoP-4">
          <mxGeometry relative="1" as="geometry">
            <Array as="points">
              <mxPoint x="720" y="370" />
              <mxPoint x="630" y="370" />
            </Array>
          </mxGeometry>
        </mxCell>
        <mxCell id="c8YGAaLrMJaknSb1OKQ_-3" value="http://front-end.url&lt;div&gt;http://service1.url&lt;/div&gt;&lt;div&gt;http://service2.url&lt;/div&gt;&lt;div&gt;...&lt;/div&gt;" style="rounded=1;whiteSpace=wrap;html=1;" vertex="1" parent="1">
          <mxGeometry x="660" y="200" width="120" height="80" as="geometry" />
        </mxCell>
        <mxCell id="c8YGAaLrMJaknSb1OKQ_-9" style="edgeStyle=orthogonalEdgeStyle;rounded=0;orthogonalLoop=1;jettySize=auto;html=1;entryX=0.5;entryY=0;entryDx=0;entryDy=0;" edge="1" parent="1" source="c8YGAaLrMJaknSb1OKQ_-7" target="35xceseinkIuoweITH5B-21">
          <mxGeometry relative="1" as="geometry">
            <Array as="points">
              <mxPoint x="1080" y="370" />
              <mxPoint x="990" y="370" />
            </Array>
          </mxGeometry>
        </mxCell>
        <mxCell id="c8YGAaLrMJaknSb1OKQ_-7" value="Test Results" style="rounded=1;whiteSpace=wrap;html=1;" vertex="1" parent="1">
          <mxGeometry x="1020" y="210" width="120" height="60" as="geometry" />
        </mxCell>
        <mxCell id="c8YGAaLrMJaknSb1OKQ_-8" value="Step 2&lt;div&gt;Deploy Parasoft code covreage agents with application&lt;/div&gt;" style="text;html=1;align=center;verticalAlign=middle;whiteSpace=wrap;rounded=0;" vertex="1" parent="1">
          <mxGeometry x="565" y="320" width="120" height="30" as="geometry" />
        </mxCell>
        <mxCell id="c8YGAaLrMJaknSb1OKQ_-12" value="Step 4&lt;div&gt;Trigger Parasoft CTP APIs at test start/stop&lt;/div&gt;" style="text;html=1;align=center;verticalAlign=middle;whiteSpace=wrap;rounded=0;" vertex="1" parent="1">
          <mxGeometry x="905" y="320" width="160" height="30" as="geometry" />
        </mxCell>
        <mxCell id="c8YGAaLrMJaknSb1OKQ_-14" value="Insert DTP&amp;nbsp;&lt;div&gt;dashboard&lt;div&gt;screenshot&lt;/div&gt;&lt;/div&gt;" style="rounded=0;whiteSpace=wrap;html=1;" vertex="1" parent="1">
          <mxGeometry x="570" y="641" width="120" height="70" as="geometry" />
        </mxCell>
        <mxCell id="c8YGAaLrMJaknSb1OKQ_-16" value="Step 5 Review results" style="text;html=1;align=center;verticalAlign=middle;whiteSpace=wrap;rounded=0;" vertex="1" parent="1">
          <mxGeometry x="700" y="661" width="60" height="30" as="geometry" />
        </mxCell>
        <mxCell id="c8YGAaLrMJaknSb1OKQ_-17" value="" style="endArrow=none;dashed=1;html=1;rounded=0;" edge="1" parent="1">
          <mxGeometry width="50" height="50" relative="1" as="geometry">
            <mxPoint x="85" y="290" as="sourcePoint" />
            <mxPoint x="1290" y="290" as="targetPoint" />
          </mxGeometry>
        </mxCell>
        <mxCell id="c8YGAaLrMJaknSb1OKQ_-18" value="Standard&lt;div&gt;Workflow&lt;/div&gt;" style="text;html=1;align=center;verticalAlign=middle;whiteSpace=wrap;rounded=0;" vertex="1" parent="1">
          <mxGeometry x="1200" y="225" width="60" height="30" as="geometry" />
        </mxCell>
        <mxCell id="c8YGAaLrMJaknSb1OKQ_-19" value="Parasoft Code Coverage workflow" style="text;html=1;align=center;verticalAlign=middle;whiteSpace=wrap;rounded=0;" vertex="1" parent="1">
          <mxGeometry x="1200" y="441" width="60" height="30" as="geometry" />
        </mxCell>
      </root>
    </mxGraphModel>
  </diagram>
</mxfile>
